<svg width="190" height="56" viewBox="0 0 190 56" fill="none" xmlns="http://www.w3.org/2000/svg">
<path d="M150.672 -48.4039C128.732 -38.7444 38.1281 -7.96907 -53 -5.04878C-49.4807 47.5165 -15.0362 105.173 13.1933 105.173C84.7029 105.173 142.21 -14.1092 154.266 -39.5681C157.785 -46.6068 156.662 -49.2275 153.891 -49.2275C152.993 -49.2275 151.87 -48.928 150.672 -48.4039Z" fill="url(#paint0_linear_24961_82358)"/>
<g opacity="0.9">
<path d="M184.591 -0.630114C164.374 8.20564 80.8837 36.5849 -3.13086 39.3554C0.0889487 87.8023 31.9126 140.967 57.8957 140.967C123.789 140.967 176.804 31.0438 187.961 7.53172C191.181 1.01723 190.207 -1.37891 187.661 -1.37891C186.688 -1.37891 185.64 -1.07939 184.591 -0.630114Z" fill="url(#paint1_linear_24961_82358)"/>
</g>
<path d="M121.619 19.8115C86.5751 29.0217 41.7225 37.8574 -3.20508 39.2801C-1.63261 62.1932 6.22971 86.1545 16.9374 105.024C59.2442 102.628 96.3094 59.198 121.619 19.8115Z" fill="url(#paint2_linear_24961_82358)"/>
<defs>
<linearGradient id="paint0_linear_24961_82358" x1="-51.2795" y1="27.9912" x2="162.818" y2="27.9912" gradientUnits="userSpaceOnUse">
<stop stop-color="#F7EC00"/>
<stop offset="0.0178967" stop-color="#F7DF01"/>
<stop offset="0.062684" stop-color="#F7C911"/>
<stop offset="0.1084" stop-color="#F7B718"/>
<stop offset="0.1549" stop-color="#F8AA1A"/>
<stop offset="0.2027" stop-color="#F9A21B"/>
<stop offset="0.2535" stop-color="#F9A01B"/>
<stop offset="0.5577" stop-color="#F47920"/>
<stop offset="0.9986" stop-color="#EB1D25"/>
</linearGradient>
<linearGradient id="paint1_linear_24961_82358" x1="-1.58453" y1="69.7577" x2="195.725" y2="69.7577" gradientUnits="userSpaceOnUse">
<stop stop-color="#F7EC00"/>
<stop offset="0.0178967" stop-color="#F7DF01"/>
<stop offset="0.062684" stop-color="#F7C911"/>
<stop offset="0.1084" stop-color="#F7B718"/>
<stop offset="0.1549" stop-color="#F8AA1A"/>
<stop offset="0.2027" stop-color="#F9A21B"/>
<stop offset="0.2535" stop-color="#F9A01B"/>
<stop offset="0.5577" stop-color="#F47920"/>
<stop offset="0.9986" stop-color="#EB1D25"/>
</linearGradient>
<linearGradient id="paint2_linear_24961_82358" x1="-3.16951" y1="62.4558" x2="121.653" y2="62.4558" gradientUnits="userSpaceOnUse">
<stop stop-color="#FEDB00"/>
<stop offset="1" stop-color="#F9A01B"/>
</linearGradient>
</defs>
</svg>
