<svg width="48" height="48" viewBox="0 0 48 48" fill="none" xmlns="http://www.w3.org/2000/svg">
<path d="M43.8514 15.8158C33.163 20.0486 21.882 22.5057 10.4355 23.094C11.0059 31.9286 16.6647 41.5986 21.2946 41.5986C33.0259 41.5986 42.4535 21.5834 44.4441 17.3035C45.2046 15.7128 44.623 15.4725 43.8514 15.8158Z" fill="url(#paint0_linear_1275_45268)"/>
<path d="M16.8327 19.3632C11.241 17.3033 12.3594 7.4388 12.2363 6.77506C11.6772 4.61219 3.2002 12.2452 3.2002 17.4292C3.2002 19.5921 4.57575 20.2787 6.83479 20.3474C10.1795 20.325 13.5164 20.0149 16.8103 19.4204C16.8886 19.4319 16.8774 19.3746 16.8327 19.3632Z" fill="url(#paint1_linear_1275_45268)"/>
<defs>
<linearGradient id="paint0_linear_1275_45268" x1="6.41424" y1="25.7795" x2="46.9363" y2="32.7605" gradientUnits="userSpaceOnUse">
<stop stop-color="#F9A51A"/>
<stop offset="0.5" stop-color="#FFDC00"/>
<stop offset="1" stop-color="#FFDC00"/>
</linearGradient>
<linearGradient id="paint1_linear_1275_45268" x1="14.942" y1="22.6247" x2="6.38597" y2="4.6944" gradientUnits="userSpaceOnUse">
<stop stop-color="#F9A51A"/>
<stop offset="0.2" stop-color="#FFC10E"/>
<stop offset="0.45" stop-color="#FFDC00"/>
<stop offset="1" stop-color="#FFDC00"/>
</linearGradient>
</defs>
</svg>
